<?xml version="1.0" encoding="utf-8"?>
<!-- Generator: Adobe Illustrator 22.1.0, SVG Export Plug-In . SVG Version: 6.00 Build 0)  -->
<svg version="1.1" id="Layer_1" xmlns="http://www.w3.org/2000/svg" xmlns:xlink="http://www.w3.org/1999/xlink" x="0px" y="0px"
	 viewBox="0 0 360 360" style="enable-background:new 0 0 360 360;" xml:space="preserve">
<style type="text/css">
	.st0{enable-background:new    ;}
	.st1{fill:#424243;}
</style>
<g class="st0">
	<path class="st1" d="M31.5,256.5h8.3l10.6,39.7h-6.7l-2.5-9.7H29.3l-2.6,9.7H20L31.5,256.5z M40.1,281.4l-4.6-19.6h-0.1l-4.8,19.6
		H40.1z"/>
	<path class="st1" d="M52.2,256.5h14.3c5.7,0,10.2,2.8,10.2,10.2c0,5.1-2.3,9.1-6.7,9.7v0.1c4,0.4,6.1,2.6,6.3,8.1
		c0.1,2.6,0.1,5.7,0.2,8.1c0.1,1.9,1.1,2.9,1.9,3.4h-7.3c-0.6-0.7-0.9-1.9-1.1-3.5c-0.2-2.4-0.2-4.6-0.3-7.5
		c-0.1-4.3-1.5-6.2-5.9-6.2h-5.3v17.2h-6.4V256.5z M63.8,274.2c4.1,0,6.4-2.4,6.4-6.4c0-4.2-1.9-6.4-6.1-6.4h-5.5v12.9H63.8z"/>
	<path class="st1" d="M100.4,295.7c-1.6,0.9-3.8,1.3-6.3,1.3c-9.3,0-13.3-6.4-13.3-20.6s4.1-20.6,13.3-20.6
		c9.3,0,13.3,6.4,13.3,20.6c0,7.3-1.4,12.8-3.2,15.7l4.1,4.3l-3.8,3.4L100.4,295.7z M97,285.3l2.7,2.6c0.9-2.4,1.3-6.1,1.3-11.7
		c0-13.3-3.1-15.7-6.9-15.7c-3.8,0-6.9,2.3-6.9,15.7c0,13.7,3.1,16,6.9,16c0.8,0,1.6-0.1,2.3-0.4l-3.1-2.9L97,285.3z"/>
	<path class="st1" d="M118.1,256.5V285c0,5,2,7.2,5.9,7.2c3.8,0,5.9-2.2,5.9-7.2v-28.4h6.4v27.9c0,9.2-4.6,12.5-12.3,12.5
		c-7.7,0-12.4-3.3-12.4-12.5v-27.9H118.1z"/>
	<path class="st1" d="M141.3,256.5h6.4v39.7h-6.4V256.5z"/>
	<path class="st1" d="M159.8,261.9h-9.6v-5.3h25.5v5.3h-9.4v34.3h-6.4V261.9z"/>
	<path class="st1" d="M178.4,256.5h21.8v5.3h-15.4v11h14.5v5.3h-14.5v12.7h15.8v5.3h-22.3V256.5z"/>
	<path class="st1" d="M229.5,282v0.8c0,7.2-2.9,14.2-12.4,14.2c-10.2,0-13.3-6.4-13.3-20.6s3.2-20.6,13.4-20.6
		c11.5,0,12.2,8.3,12.2,12.4v0.7h-6.4v-0.7c0-3.7-1.1-7.9-5.8-7.7c-4.8,0-6.9,2.9-6.9,15.7c0,12.8,2.1,16,6.9,16c5.4,0,6-5.9,6-9.6
		V282H229.5z"/>
	<path class="st1" d="M239.6,261.9H230v-5.3h25.5v5.3h-9.4v34.3h-6.4V261.9z"/>
	<path class="st1" d="M264.2,256.5V285c0,5,2,7.2,5.9,7.2c3.8,0,5.9-2.2,5.9-7.2v-28.4h6.4v27.9c0,9.2-4.6,12.5-12.3,12.5
		c-7.7,0-12.4-3.3-12.4-12.5v-27.9H264.2z"/>
	<path class="st1" d="M287.7,256.5h14.3c5.7,0,10.2,2.8,10.2,10.2c0,5.1-2.3,9.1-6.7,9.7v0.1c4,0.4,6.1,2.6,6.3,8.1
		c0.1,2.6,0.1,5.7,0.2,8.1c0.1,1.9,1.1,2.9,1.9,3.4h-7.3c-0.6-0.7-0.9-1.9-1.1-3.5c-0.2-2.4-0.2-4.6-0.3-7.5
		c-0.1-4.3-1.5-6.2-5.9-6.2h-5.3v17.2h-6.4V256.5z M299.3,274.2c4.1,0,6.4-2.4,6.4-6.4c0-4.2-1.9-6.4-6.1-6.4h-5.5v12.9H299.3z"/>
	<path class="st1" d="M324.7,256.5h8.3l10.6,39.7h-6.7l-2.5-9.7h-11.8l-2.6,9.7h-6.7L324.7,256.5z M333.3,281.4l-4.6-19.6h-0.1
		l-4.8,19.6H333.3z"/>
</g>
<g class="st0">
	<path class="st1" d="M186.5,311.1h-0.1l-11.6,36.7h-2.4l-11.6-36.7h-0.1v36.7h-2.4v-39.7h3.8l11.5,35.7h0.1l11.2-35.7h3.9v39.7
		h-2.4V311.1z"/>
	<path class="st1" d="M212.2,335.5H197l-3.8,12.3h-2.4l12.6-39.7h3l12.1,39.7h-2.4L212.2,335.5z M204.8,310.5h-0.1l-7.1,23.1h14.2
		L204.8,310.5z"/>
	<path class="st1" d="M221.6,337.6c0,5.1,3.3,8.9,9.2,8.9c5.6,0,9.3-3.9,9.3-9c0-5.2-2.8-6.9-7.4-8.5l-4.6-1.6
		c-5.3-1.8-8.2-4.3-8.2-9.7c0-6.4,4.5-10.3,10.8-10.3c7.5,0,10.8,4.2,10.8,10.8h-2.4c0-5.3-2.5-8.9-8.2-8.9c-4.5,0-8.7,2.1-8.7,8.2
		c0,4.4,2.4,6.5,5.9,7.7l6,2.1c5.2,1.8,8.2,4.3,8.2,10.1c0,7.1-5.3,11.1-11.7,11.1c-9.3,0-11.5-6.4-11.5-10.3v-2.6h2.4V337.6z"/>
	<path class="st1" d="M261.4,337.3c0,5.6,2.5,9.3,8.8,9.3c5.8,0,8.8-3.7,8.8-9.3v-29.2h2.4v28.7c0,8.9-5.6,11.6-11.2,11.6
		c-5.6,0-11.2-2.1-11.2-11.6v-28.7h2.4V337.3z"/>
	<path class="st1" d="M289.7,308.1l17.6,36h0.1v-36h2.4v39.7h-3.1l-17.6-36h-0.1v36h-2.4v-39.7H289.7z"/>
	<path class="st1" d="M340.1,328c0,17.4-7.3,20.5-13,20.5c-7.7,0-13.1-5.1-13.1-20.5c0-15.4,5.7-20.5,13.1-20.5
		C335.1,307.5,340.1,312.6,340.1,328z M316.4,328c0,10.9,2.3,18.6,10.7,18.6c7.4,0,10.6-6,10.6-18.6c0-10.7-2.4-18.6-10.6-18.6
		C319.1,309.4,316.4,317.1,316.4,328z"/>
</g>
<polygon class="st1" points="208.8,298.4 211.5,298.4 206.2,306.2 204.3,306.2 "/>
<g>
	<g>
		<path class="st1" d="M187.6,7.6c0.3,0.3,0.5,0.6,0.8,0.9c3.2,3.5,6.5,6.9,9.7,10.5c4.3,4.7,8.7,9.3,13,14.1s8.8,9.4,13.1,14.2
			c4.4,4.8,8.9,9.5,13.2,14.3c4.1,4.5,8.4,8.9,12.4,13.5c4.5,5,9.1,9.8,13.6,14.8c4.3,4.8,8.8,9.4,13.2,14.2
			c4.2,4.7,8.6,9.2,12.8,13.9c4.4,4.9,8.9,9.6,13.3,14.4c4.3,4.8,8.8,9.4,13.1,14.2c4.3,4.7,8.7,9.3,13,14.1s8.7,9.4,13.1,14.1
			l0.1,0.1c0.6,0.7,0.6,0.7-0.1,1.3c-1.5,1.2-2.9,2.3-4.4,3.5c-3.9,3.1-7.9,6.2-11.8,9.4c-5.9,4.9-12,9.5-17.8,14.3
			c-5.7,4.7-11.5,9.1-17.2,13.8c-6,5-12.3,9.7-18.3,14.7c-5.8,4.7-11.7,9.3-17.5,14c-1.6,1.3-3.2,2.6-4.8,3.9
			c-0.5,0.4-0.9,0.4-1.4,0c-7.4-5.7-14.9-11.2-22.3-16.9c-5.9-4.5-11.9-8.9-17.7-13.5c-6.4-5-13.1-9.8-19.5-14.8
			c-6.1-4.8-12.4-9.3-18.5-14c-1.7-1.3-3.5-2.7-5.2-4c-0.5-0.4-0.9-0.5-1.5-0.5c-3.1,0.2-6.2,0.4-9.3,0.6c-3.2,0.2-6.4,0.4-9.6,0.6
			c-4.4,0.3-8.8,0.6-13.2,0.8c-3,0.2-5.9,0.4-8.9,0.6c-4.4,0.3-8.9,0.6-13.3,0.9c-1.4,0.1-2.8,0.2-4.2,0.3c-5.5,0.4-11,0.8-16.4,1.1
			c-4.4,0.3-8.7,0.5-13.1,0.8c-1.2,0.1-2.3,0.2-3.5,0.2c-0.5,0-0.7,0.3-1,0.6c-1.3,1.9-2.6,3.8-3.9,5.7c-0.5,0.8-0.5,0.8-1.4,0.5
			c-9.5-2.8-18.9-5.6-28.4-8.5c-2.5-0.8-5.1-1.6-7.6-2.3c-0.8-0.2-1.1-0.6-1.3-1.4c-1.7-6.3-3.4-12.6-5.1-18.9
			c-1.7-6.5-3.5-13-5.2-19.5c-0.2-0.7-0.7-1.5-0.4-2.2c0.3-0.7,1.1-1,1.6-1.4c4.2-3.4,8.4-6.7,12.5-10.1c5.9-5,12.1-9.7,18-14.6
			c5.5-4.6,11.2-9,16.7-13.6c6-5,12.1-9.7,18.1-14.7c5.6-4.6,11.3-9.1,16.8-13.7c5.9-5,12.1-9.7,18-14.6c5.6-4.6,11.3-9.1,16.8-13.7
			c5.9-5,12.1-9.7,18-14.6c5.5-4.6,11.2-9,16.7-13.6c4.8-4,9.7-7.9,14.5-11.8C186.7,8.6,187.1,8.1,187.6,7.6z M107.3,139.5
			c0.2,0.2,0.4,0.4,0.6,0.5c3.4,2.6,6.9,5.2,10.2,7.8c6.1,4.8,12.4,9.3,18.5,14c6.2,4.8,12.5,9.4,18.7,14.2c2.6,2.1,5.3,4,7.9,6
			c1.4,1.1,2.7,2,4.6,1.4c0.3-0.1,0.5,0,0.8,0c3-0.2,5.9-0.4,8.9-0.6c4.4-0.3,8.8-0.6,13.2-0.8c3-0.2,5.9-0.4,8.9-0.5
			c4.5-0.3,9-0.6,13.4-0.8c2.9-0.2,5.9-0.4,8.8-0.5c4.4-0.3,8.8-0.6,13.2-0.8c3-0.2,5.9-0.4,8.9-0.5c4.3-0.3,8.6-0.6,12.9-0.8
			c4.3-0.3,8.6-0.5,12.9-0.8c5.5-0.3,11-0.8,16.5-1c5.1-0.3,10.1-0.8,15.2-1.1c4.3-0.2,8.6-0.6,12.9-0.8c4.2-0.3,8.5-0.5,12.7-0.8
			c0.2,0,0.5,0.1,0.6-0.2c-0.1-0.3-0.4-0.5-0.6-0.8c-3.5-3.9-7.2-7.8-10.7-11.8c-4.5-5-9.1-9.8-13.5-14.8c-4.1-4.6-8.3-9-12.4-13.5
			c-4.3-4.8-8.7-9.4-13-14.2c-4.2-4.7-8.6-9.3-12.8-14c-4.4-4.9-9-9.7-13.4-14.7c-4.1-4.6-8.4-9.1-12.5-13.7
			c-4.3-4.8-8.7-9.4-13-14.2s-8.8-9.5-13.1-14.3c-4.2-4.7-8.6-9.3-12.8-14c-3.6-4.1-7.4-8-11.1-12.1c-0.2-0.2-0.4-0.6-0.8-0.7
			c-0.3,0.2-0.5,0.6-0.7,0.9c-3,4.4-6.1,8.8-9,13.2c-3.1,4.7-6.4,9.4-9.6,14.1c-3.4,5.1-6.8,10.1-10.2,15.1c-3,4.4-6,8.8-9,13.2
			c-3.4,5.1-6.9,10.1-10.3,15.2c-2.9,4.4-6,8.7-8.9,13.1c-3.3,5-6.8,10-10.2,15c-4.1,6.2-8.3,12.3-12.5,18.4
			C107.7,138.9,107.5,139.2,107.3,139.5z M168.2,185.5c-0.1,0.3,0.1,0.4,0.2,0.5c1.8,1.4,3.6,2.8,5.4,4.2c6.3,4.9,12.7,9.6,19,14.5
			c6,4.7,12.2,9.2,18.3,13.9c6.2,4.9,12.6,9.5,18.8,14.3c3.6,2.8,7.3,5.5,10.9,8.3c0.4,0.3,0.8,0.6,1.2,0.9c0.3,0.2,0.5,0.2,0.7,0
			s0.4-0.3,0.6-0.5c4.2-3.3,8.4-6.6,12.6-9.9c6.1-4.9,12.3-9.6,18.4-14.5c5.8-4.7,11.8-9.2,17.7-13.9c6-4.9,12.2-9.5,18.2-14.4
			c5.1-4.1,10.4-8.1,15.5-12.2c0.4-0.3,0.9-0.6,1.2-1.1C274.1,178.8,221.2,182.2,168.2,185.5z M150.6,61.1c3.1-4.7,6.4-9.2,9.5-13.9
			c3.2-4.9,6.7-9.6,9.9-14.4c4-5.8,8-11.5,12-17.3c0.2-0.2,0.4-0.4,0.4-0.8c-2.4,2-4.7,3.9-7.1,5.8c-5.7,4.7-11.5,9.3-17.2,14
			c-5.8,4.9-11.8,9.5-17.6,14.4c-5.7,4.7-11.5,9.3-17.2,14c-5.8,4.9-11.8,9.5-17.6,14.4c-5.7,4.7-11.5,9.3-17.2,14
			c-6.8,5.6-13.8,11.1-20.6,16.8c-0.3,0.3-0.7,0.4-0.9,0.9c11.2,8.5,22.3,17,33.5,25.5c0.6-0.7,1-1.4,1.4-2.1
			c3.2-4.7,6.6-9.4,9.7-14.1c3.2-4.8,6.5-9.4,9.7-14.2c3.2-4.8,6.5-9.4,9.7-14.2c3.2-4.8,6.5-9.4,9.7-14.2 M99.2,136
			c-1.5-1.2-3-2.4-4.6-3.6c-6.2-4.8-12.5-9.4-18.7-14.2c-3.3-2.6-6.7-5.1-10.1-7.6c-0.8-0.6-0.8-0.6-1.5,0
			c-3.6,2.9-7.2,5.8-10.7,8.7c-6,5-12.1,9.7-18.1,14.7c-4.9,4-9.8,7.9-14.7,11.9c1.1,1.4,42.4,40.6,43.3,41
			C75.9,170,87.5,153,99.2,136z M73.4,189.4c29.7-1.9,59.2-3.7,88.7-5.6c-0.2-0.4-0.5-0.5-0.7-0.7c-3.6-2.8-7.3-5.5-10.9-8.3
			c-6.2-4.8-12.6-9.4-18.7-14.3c-3.2-2.5-6.5-4.9-9.7-7.3c-2.6-2-5.3-3.9-7.9-6s-5.4-4.1-8.1-6.2C95.3,157.2,84.4,173.3,73.4,189.4z
			 M21.5,149.5c-0.1,0.1-0.1,0.1-0.2,0.2c0,0.1,0,0.2,0,0.3c2.3,8.7,4.7,17.3,7,26c0.2,0.7,0.5,0.9,1.1,1.1
			c8.9,2.7,17.7,5.4,26.6,8.1c1.3,0.4,2.6,0.8,4,1.2c0-0.1,0.1-0.1,0.1-0.2C47.2,173.9,34.3,161.7,21.5,149.5z"/>
	</g>
</g>
</svg>
