<?xml version="1.0" encoding="utf-8"?>
<!-- Generator: Adobe Illustrator 22.1.0, SVG Export Plug-In . SVG Version: 6.00 Build 0)  -->
<svg version="1.1" id="Capa_1" xmlns="http://www.w3.org/2000/svg" xmlns:xlink="http://www.w3.org/1999/xlink" x="0px" y="0px"
	 viewBox="0 0 95 95" style="enable-background:new 0 0 95 95;" xml:space="preserve">
<style type="text/css">
	.st0{fill:#424243;}
</style>
<g>
	<g>
		<path class="st0" d="M60,23V2c0-1.1-0.9-2-2-2H37c-1.1,0-2,0.9-2,2v21c0,1.1,0.9,2,2,2h21C59.1,25,60,24.1,60,23z"/>
		<path class="st0" d="M60,58V37c0-1.1-0.9-2-2-2H37c-1.1,0-2,0.9-2,2v21c0,1.1,0.9,2,2,2h21C59.1,60,60,59.1,60,58z"/>
		<path class="st0" d="M60,93V72c0-1.1-0.9-2-2-2H37c-1.1,0-2,0.9-2,2v21c0,1.1,0.9,2,2,2h21C59.1,95,60,94.1,60,93z"/>
	</g>
</g>
</svg>
