<?xml version="1.0" encoding="utf-8"?>
<!-- Generator: Adobe Illustrator 22.1.0, SVG Export Plug-In . SVG Version: 6.00 Build 0)  -->
<svg version="1.1" id="Capa_1" xmlns="http://www.w3.org/2000/svg" xmlns:xlink="http://www.w3.org/1999/xlink" x="0px" y="0px"
	 viewBox="0 0 511.6 511.6" style="enable-background:new 0 0 511.6 511.6;" xml:space="preserve">
<style type="text/css">
	.st0{fill:#F2F3F4;}
</style>
<g>
	<g>
		<path class="st0" d="M18.3,237.5h438.5c4.9,0,9.2-1.8,12.8-5.4c3.6-3.6,5.4-7.9,5.4-12.8v-36.5c0-5-1.8-9.2-5.4-12.8
			c-3.6-3.6-7.9-5.4-12.8-5.4H18.3c-5,0-9.2,1.8-12.9,5.4c-3.6,3.6-5.4,7.9-5.4,12.8v36.5c0,4.9,1.8,9.2,5.4,12.8
			C9,235.7,13.3,237.5,18.3,237.5z"/>
		<path class="st0" d="M18.3,127.9h328.9c4.9,0,9.2-1.8,12.9-5.4c3.6-3.6,5.4-7.9,5.4-12.8V73.1c0-4.9-1.8-9.2-5.4-12.8
			c-3.6-3.6-7.9-5.4-12.9-5.4H18.3c-5,0-9.2,1.8-12.9,5.4C1.8,63.9,0,68.1,0,73.1v36.5c0,4.9,1.8,9.2,5.4,12.8
			C9,126.1,13.3,127.9,18.3,127.9z"/>
		<path class="st0" d="M506.2,389.1c-3.6-3.6-7.9-5.4-12.9-5.4H18.3c-5,0-9.2,1.8-12.9,5.4C1.8,392.8,0,397,0,402v36.5
			c0,4.9,1.8,9.2,5.4,12.9c3.6,3.6,7.9,5.4,12.9,5.4h475.1c4.9,0,9.2-1.8,12.9-5.4c3.6-3.6,5.4-7.9,5.4-12.9V402
			C511.6,397,509.8,392.8,506.2,389.1z"/>
		<path class="st0" d="M18.3,347.2h365.4c4.9,0,9.2-1.8,12.8-5.4c3.6-3.6,5.4-7.9,5.4-12.8v-36.5c0-4.9-1.8-9.2-5.4-12.8
			c-3.6-3.6-7.9-5.4-12.8-5.4H18.3c-5,0-9.2,1.8-12.9,5.4c-3.6,3.6-5.4,7.9-5.4,12.8v36.5c0,4.9,1.8,9.2,5.4,12.8
			C9,345.4,13.3,347.2,18.3,347.2z"/>
	</g>
</g>
</svg>
